<mxfile host="Electron" agent="Mozilla/5.0 (Macintosh; Intel Mac OS X 10_15_7) AppleWebKit/537.36 (KHTML, like Gecko) draw.io/28.1.2 Chrome/138.0.7204.243 Electron/37.4.0 Safari/537.36" version="28.1.2">
  <diagram name="VPD-Lifecycle" id="VPD-Lifecycle-1">
    <mxGraphModel dx="1234" dy="859" grid="1" gridSize="10" guides="1" tooltips="1" connect="1" arrows="1" fold="1" page="1" pageScale="1" pageWidth="2000" pageHeight="1400" math="0" shadow="0">
      <root>
        <mxCell id="0" />
        <mxCell id="1" parent="0" />
        <mxCell id="title" value="VPD (Vapor Pressure Deficit) Variable Lifecycle" style="text;html=1;strokeColor=none;fillColor=none;align=center;verticalAlign=middle;whiteSpace=wrap;rounded=0;fontSize=24;fontStyle=1" parent="1" vertex="1">
          <mxGeometry x="300" y="20" width="1400" height="40" as="geometry" />
        </mxCell>
        <mxCell id="legend-box" value="" style="rounded=1;whiteSpace=wrap;html=1;strokeColor=#666666;fillColor=none;" parent="1" vertex="1">
          <mxGeometry x="20" y="80" width="200" height="120" as="geometry" />
        </mxCell>
        <mxCell id="legend-title" value="Legend" style="text;html=1;strokeColor=none;fillColor=none;align=center;verticalAlign=middle;whiteSpace=wrap;rounded=0;fontStyle=1;fontSize=16;" parent="1" vertex="1">
          <mxGeometry x="30" y="84" width="180" height="20" as="geometry" />
        </mxCell>
        <mxCell id="legend-source" value="" style="shape=cylinder3;whiteSpace=wrap;html=1;boundedLbl=1;backgroundOutline=1;size=15;strokeWidth=2;fillColor=#dae8fc;strokeColor=#6c8ebf;" parent="1" vertex="1">
          <mxGeometry x="30" y="110" width="20" height="20" as="geometry" />
        </mxCell>
        <mxCell id="legend-source-text" value="Data Source" style="text;html=1;strokeColor=none;fillColor=none;align=left;verticalAlign=middle;whiteSpace=wrap;rounded=0;" parent="1" vertex="1">
          <mxGeometry x="60" y="110" width="140" height="20" as="geometry" />
        </mxCell>
        <mxCell id="legend-process" value="" style="rounded=1;whiteSpace=wrap;html=1;fillColor=#d5e8d4;strokeColor=#82b366;" parent="1" vertex="1">
          <mxGeometry x="30" y="140" width="20" height="20" as="geometry" />
        </mxCell>
        <mxCell id="legend-process-text" value="Process / Code" style="text;html=1;strokeColor=none;fillColor=none;align=left;verticalAlign=middle;whiteSpace=wrap;rounded=0;" parent="1" vertex="1">
          <mxGeometry x="60" y="140" width="140" height="20" as="geometry" />
        </mxCell>
        <mxCell id="legend-file" value="" style="shape=document;whiteSpace=wrap;html=1;boundedLbl=1;fillColor=#fff2cc;strokeColor=#d6b656;" parent="1" vertex="1">
          <mxGeometry x="30" y="170" width="20" height="20" as="geometry" />
        </mxCell>
        <mxCell id="legend-file-text" value="File / Artifact" style="text;html=1;strokeColor=none;fillColor=none;align=left;verticalAlign=middle;whiteSpace=wrap;rounded=0;" parent="1" vertex="1">
          <mxGeometry x="60" y="170" width="140" height="20" as="geometry" />
        </mxCell>
        <mxCell id="source-data-temp" value="ERA5 Reanalysis&lt;br&gt;&lt;b&gt;2m_temperature&lt;/b&gt;&lt;br&gt;(Hourly or Daily)" style="shape=cylinder3;whiteSpace=wrap;html=1;boundedLbl=1;backgroundOutline=1;size=15;strokeWidth=2;fontSize=12;fontStyle=0;fillColor=#dae8fc;strokeColor=#6c8ebf;" parent="1" vertex="1">
          <mxGeometry x="80" y="420" width="180" height="80" as="geometry" />
        </mxCell>
        <mxCell id="source-data-dew" value="ERA5 Reanalysis&lt;br&gt;&lt;b&gt;2m_dewpoint_temperature&lt;/b&gt;" style="shape=cylinder3;whiteSpace=wrap;html=1;boundedLbl=1;backgroundOutline=1;size=15;strokeWidth=2;fontSize=12;fontStyle=0;fillColor=#dae8fc;strokeColor=#6c8ebf;" parent="1" vertex="1">
          <mxGeometry x="80" y="540" width="180" height="80" as="geometry" />
        </mxCell>
        <mxCell id="downloader" value="ecmwf_downloader.py" style="rounded=1;whiteSpace=wrap;html=1;strokeWidth=2;fontSize=12;fillColor=#d5e8d4;strokeColor=#82b366;align=center;" parent="1" vertex="1">
          <mxGeometry x="340" y="460" width="180" height="80" as="geometry" />
        </mxCell>
        <mxCell id="downloaded-file-temp" value="Downloaded NetCDF File(s)&lt;br&gt;&lt;b&gt;t2m.nc&lt;/b&gt;" style="shape=document;whiteSpace=wrap;html=1;boundedLbl=1;strokeWidth=2;fontSize=12;fillColor=#fff2cc;strokeColor=#d6b656;" parent="1" vertex="1">
          <mxGeometry x="600" y="420" width="180" height="80" as="geometry" />
        </mxCell>
        <mxCell id="downloaded-file-dew" value="Downloaded NetCDF File(s)&lt;br&gt;&lt;b&gt;d2m.nc&lt;/b&gt;" style="shape=document;whiteSpace=wrap;html=1;boundedLbl=1;strokeWidth=2;fontSize=12;fillColor=#fff2cc;strokeColor=#d6b656;" parent="1" vertex="1">
          <mxGeometry x="600" y="540" width="180" height="80" as="geometry" />
        </mxCell>
        <mxCell id="processor-container" value="CBFMetProcessor Workflow" style="rounded=1;whiteSpace=wrap;html=1;strokeWidth=2;fontSize=14;fontStyle=1;align=center;verticalAlign=top;fillColor=#d5e8d4;strokeColor=#82b366;" parent="1" vertex="1">
          <mxGeometry x="860" y="220" width="390" height="860" as="geometry" />
        </mxCell>
        <mxCell id="step1" value="&lt;b&gt;1. Load Unified Dataset&lt;/b&gt;&lt;br&gt;_load_unified_era5_dataset()" style="rounded=0;whiteSpace=wrap;html=1;align=center;fillColor=#e6fffa;strokeColor=#006b57;" parent="processor-container" vertex="1">
          <mxGeometry x="32.50000000000001" y="61.428571428571416" width="325" height="76.78571428571428" as="geometry" />
        </mxCell>
        <mxCell id="step2" value="&lt;b&gt;2. Calculate Derived Vars&lt;/b&gt;&lt;br&gt;_calculate_derived_variables()" style="rounded=0;whiteSpace=wrap;html=1;align=center;fillColor=#e6fffa;strokeColor=#006b57;" parent="processor-container" vertex="1">
          <mxGeometry x="32.50000000000001" y="153.57142857142856" width="325" height="76.78571428571428" as="geometry" />
        </mxCell>
        <mxCell id="step3" value="&lt;b&gt;3. Convert Units&lt;/b&gt;&lt;br&gt;Temp &amp;amp; Dewpoint: K -&amp;gt; Â°C" style="rounded=0;whiteSpace=wrap;html=1;align=center;fillColor=#e6fffa;strokeColor=#006b57;" parent="processor-container" vertex="1">
          <mxGeometry x="32.50000000000001" y="245.71428571428567" width="325" height="76.78571428571428" as="geometry" />
        </mxCell>
        <mxCell id="decision" value="Is data sub-monthly?" style="rhombus;whiteSpace=wrap;html=1;fillColor=#ffe6cc;strokeColor=#d79b00;" parent="processor-container" vertex="1">
          <mxGeometry x="65.00000000000001" y="337.8571428571428" width="260.00000000000006" height="122.85714285714283" as="geometry" />
        </mxCell>
        <mxCell id="resample-step" value="&lt;b&gt;4a. Resample to Monthly&lt;/b&gt;&lt;br&gt;Temp: `resample(&#39;MS&#39;).max()`&lt;br&gt;Dewpoint: `resample(&#39;MS&#39;).mean()`" style="rounded=0;whiteSpace=wrap;html=1;align=center;fillColor=#e6fffa;strokeColor=#006b57;" parent="processor-container" vertex="1">
          <mxGeometry x="10" y="500" width="197.5" height="107.5" as="geometry" />
        </mxCell>
        <mxCell id="asis-step" value="&lt;b&gt;4b. Use As-Is&lt;/b&gt;&lt;br&gt;(Monthly data)" style="rounded=0;whiteSpace=wrap;html=1;align=center;fillColor=#e6fffa;strokeColor=#006b57;" parent="processor-container" vertex="1">
          <mxGeometry x="210" y="520" width="167.5" height="61.43" as="geometry" />
        </mxCell>
        <mxCell id="calculate-vpd" value="&lt;b&gt;5. Calculate VPD&lt;/b&gt;&lt;br&gt;`calculate_vapor_pressure_deficit_matlab(T_max_C, T_dew_C)`" style="rounded=0;whiteSpace=wrap;html=1;align=center;fillColor=#e6fffa;strokeColor=#006b57;" parent="processor-container" vertex="1">
          <mxGeometry x="32.50000000000001" y="675.7142857142856" width="325" height="92.14285714285714" as="geometry" />
        </mxCell>
        <mxCell id="mask-step" value="&lt;b&gt;6. Apply Land Mask (Optional)&lt;/b&gt;&lt;br&gt;_apply_land_masking()" style="rounded=0;whiteSpace=wrap;html=1;align=center;fillColor=#e6fffa;strokeColor=#006b57;dashed=1;" parent="processor-container" vertex="1">
          <mxGeometry x="32.50000000000001" y="783.2142857142856" width="325" height="76.78571428571428" as="geometry" />
        </mxCell>
        <mxCell id="merge-step" value="&lt;b&gt;7. Merge &amp;amp; Write&lt;/b&gt;&lt;br&gt;_create_unified_cbf_file()" style="rounded=0;whiteSpace=wrap;html=1;align=center;fillColor=#e6fffa;strokeColor=#006b57;" parent="processor-container" vertex="1">
          <mxGeometry x="32.50000000000001" y="875.3571428571429" width="325" height="76.78571428571428" as="geometry" />
        </mxCell>
        <mxCell id="sub-arrow1" value="" style="endArrow=classic;html=1;rounded=0;" parent="processor-container" source="step1" target="step2" edge="1">
          <mxGeometry width="50" height="50" relative="1" as="geometry">
            <mxPoint x="195.00000000000003" y="153.57142857142856" as="sourcePoint" />
            <mxPoint x="195.00000000000003" y="230.35714285714283" as="targetPoint" />
          </mxGeometry>
        </mxCell>
        <mxCell id="sub-arrow2" value="" style="endArrow=classic;html=1;rounded=0;" parent="processor-container" source="step2" target="step3" edge="1">
          <mxGeometry width="50" height="50" relative="1" as="geometry">
            <mxPoint x="195.00000000000003" y="245.71428571428567" as="sourcePoint" />
            <mxPoint x="195.00000000000003" y="322.5" as="targetPoint" />
          </mxGeometry>
        </mxCell>
        <mxCell id="sub-arrow3" value="" style="endArrow=classic;html=1;rounded=0;" parent="processor-container" source="step3" target="decision" edge="1">
          <mxGeometry width="50" height="50" relative="1" as="geometry">
            <mxPoint x="195.00000000000003" y="337.8571428571428" as="sourcePoint" />
            <mxPoint x="195.00000000000003" y="414.6428571428571" as="targetPoint" />
          </mxGeometry>
        </mxCell>
        <mxCell id="sub-arrow4" value="Yes" style="endArrow=classic;html=1;rounded=0;exitX=0.5;exitY=1;exitDx=0;exitDy=0;entryX=0.5;entryY=0;entryDx=0;entryDy=0;" parent="processor-container" source="decision" target="resample-step" edge="1">
          <mxGeometry width="50" height="50" relative="1" as="geometry">
            <mxPoint x="195.00000000000003" y="491.42857142857133" as="sourcePoint" />
            <mxPoint x="195.00000000000003" y="568.2142857142856" as="targetPoint" />
          </mxGeometry>
        </mxCell>
        <mxCell id="sub-arrow5" value="No" style="endArrow=classic;html=1;rounded=0;exitX=0.5;exitY=1;exitDx=0;exitDy=0;entryX=0.5;entryY=0;entryDx=0;entryDy=0;" parent="processor-container" source="decision" target="asis-step" edge="1">
          <mxGeometry width="50" height="50" relative="1" as="geometry">
            <mxPoint x="195.00000000000003" y="598.9285714285713" as="sourcePoint" />
            <mxPoint x="195.00000000000003" y="675.7142857142856" as="targetPoint" />
          </mxGeometry>
        </mxCell>
        <mxCell id="sub-arrow6" value="" style="endArrow=classic;html=1;rounded=0;exitX=0.5;exitY=1;exitDx=0;exitDy=0;entryX=0.5;entryY=0;entryDx=0;entryDy=0;" parent="processor-container" source="resample-step" target="calculate-vpd" edge="1">
          <mxGeometry width="50" height="50" relative="1" as="geometry">
            <mxPoint x="195.00000000000003" y="691.0714285714284" as="sourcePoint" />
            <mxPoint x="195.00000000000003" y="767.8571428571429" as="targetPoint" />
          </mxGeometry>
        </mxCell>
        <mxCell id="sub-arrow7" value="" style="endArrow=classic;html=1;rounded=0;exitX=0.5;exitY=1;exitDx=0;exitDy=0;entryX=0.5;entryY=0;entryDx=0;entryDy=0;" parent="processor-container" source="asis-step" target="calculate-vpd" edge="1">
          <mxGeometry width="50" height="50" relative="1" as="geometry">
            <mxPoint x="195.00000000000003" y="798.5714285714284" as="sourcePoint" />
            <mxPoint x="195.00000000000003" y="875.3571428571429" as="targetPoint" />
          </mxGeometry>
        </mxCell>
        <mxCell id="sub-arrow8" value="" style="endArrow=classic;html=1;rounded=0;exitX=0.5;exitY=1;exitDx=0;exitDy=0;entryX=0.5;entryY=0;entryDx=0;entryDy=0;" parent="processor-container" source="calculate-vpd" target="mask-step" edge="1">
          <mxGeometry width="50" height="50" relative="1" as="geometry">
            <mxPoint x="195.00000000000003" y="906.0714285714284" as="sourcePoint" />
            <mxPoint x="195.00000000000003" y="982.8571428571427" as="targetPoint" />
          </mxGeometry>
        </mxCell>
        <mxCell id="sub-arrow9" value="" style="endArrow=classic;html=1;rounded=0;exitX=0.5;exitY=1;exitDx=0;exitDy=0;entryX=0.5;entryY=0;entryDx=0;entryDy=0;" parent="processor-container" source="mask-step" target="merge-step" edge="1">
          <mxGeometry width="50" height="50" relative="1" as="geometry">
            <mxPoint x="195.00000000000003" y="1013.5714285714284" as="sourcePoint" />
            <mxPoint x="195.00000000000003" y="1090.3571428571427" as="targetPoint" />
          </mxGeometry>
        </mxCell>
        <mxCell id="cbf-file" value="Final CBF Met File&lt;br&gt;&lt;b&gt;AllMet05x05_LFmasked.nc&lt;/b&gt;&lt;br&gt;(contains &#39;VPD&#39; variable)" style="shape=document;whiteSpace=wrap;html=1;boundedLbl=1;strokeWidth=2;fontSize=12;fillColor=#fff2cc;strokeColor=#d6b656;" parent="1" vertex="1">
          <mxGeometry x="1440" y="610" width="180" height="80" as="geometry" />
        </mxCell>
        <mxCell id="erens-code" value="erens_cbf_code.py&lt;br&gt;&lt;br&gt;â¢ Extracts &#39;VPD&#39; from MET_VARS_TO_KEEP&lt;br&gt;â¢ Uses for stomatal conductance, transpiration" style="shape=parallelogram;perimeter=parallelogramPerimeter;whiteSpace=wrap;html=1;fixedSize=1;strokeWidth=2;fontSize=11;fontStyle=1;fillColor=#e1d5e7;strokeColor=#9673a6;align=center;" parent="1" vertex="1">
          <mxGeometry x="1420" y="370" width="220" height="100" as="geometry" />
        </mxCell>
        <mxCell id="arrow1a" value="Download" style="edgeStyle=orthogonalEdgeStyle;rounded=0;orthogonalLoop=1;jettySize=auto;html=1;endArrow=classic;endFill=1;strokeWidth=2;" parent="1" source="source-data-temp" target="downloader" edge="1">
          <mxGeometry relative="1" as="geometry" />
        </mxCell>
        <mxCell id="arrow1b" value="" style="edgeStyle=orthogonalEdgeStyle;rounded=0;orthogonalLoop=1;jettySize=auto;html=1;endArrow=classic;endFill=1;strokeWidth=2;" parent="1" source="source-data-dew" target="downloader" edge="1">
          <mxGeometry relative="1" as="geometry" />
        </mxCell>
        <mxCell id="arrow2a" value="Create File" style="edgeStyle=orthogonalEdgeStyle;rounded=0;orthogonalLoop=1;jettySize=auto;html=1;endArrow=classic;endFill=1;strokeWidth=2;" parent="1" source="downloader" target="downloaded-file-temp" edge="1">
          <mxGeometry relative="1" as="geometry" />
        </mxCell>
        <mxCell id="arrow2b" value="" style="edgeStyle=orthogonalEdgeStyle;rounded=0;orthogonalLoop=1;jettySize=auto;html=1;endArrow=classic;endFill=1;strokeWidth=2;" parent="1" source="downloader" target="downloaded-file-dew" edge="1">
          <mxGeometry relative="1" as="geometry" />
        </mxCell>
        <mxCell id="arrow3a" value="Process" style="edgeStyle=orthogonalEdgeStyle;rounded=0;orthogonalLoop=1;jettySize=auto;html=1;endArrow=classic;endFill=1;strokeWidth=2;" parent="1" source="downloaded-file-temp" target="processor-container" edge="1">
          <mxGeometry relative="1" as="geometry" />
        </mxCell>
        <mxCell id="arrow3b" value="" style="edgeStyle=orthogonalEdgeStyle;rounded=0;orthogonalLoop=1;jettySize=auto;html=1;endArrow=classic;endFill=1;strokeWidth=2;" parent="1" source="downloaded-file-dew" target="processor-container" edge="1">
          <mxGeometry relative="1" as="geometry" />
        </mxCell>
        <mxCell id="arrow4" value="Write" style="edgeStyle=orthogonalEdgeStyle;rounded=0;orthogonalLoop=1;jettySize=auto;html=1;endArrow=classic;endFill=1;strokeWidth=2;" parent="1" source="processor-container" target="cbf-file" edge="1">
          <mxGeometry relative="1" as="geometry" />
        </mxCell>
        <mxCell id="arrow5" value="Load" style="edgeStyle=orthogonalEdgeStyle;rounded=0;orthogonalLoop=1;jettySize=auto;html=1;endArrow=classic;endFill=1;strokeWidth=2;" parent="1" source="cbf-file" target="erens-code" edge="1">
          <mxGeometry relative="1" as="geometry" />
        </mxCell>
      </root>
    </mxGraphModel>
  </diagram>
</mxfile>
